<?xml version="1.0" encoding="UTF-8"?>
<!DOCTYPE svg PUBLIC "-//W3C//DTD SVG 1.1//EN" "http://www.w3.org/Graphics/SVG/1.1/DTD/svg11.dtd">
<svg version="1.1" xmlns="http://www.w3.org/2000/svg" xmlns:xlink="http://www.w3.org/1999/xlink" x="0" y="0" width="3256" height="814" viewBox="0, 0, 3256, 814">
  <g id="Layer_1">
    <g>
      <path d="M1111.846,2.348 C1113.297,2.345 1114.747,2.354 1116.196,2.392 C1116.196,2.392 1119.122,2.616 1126.61,6.194 C1129.709,7.674 1127.38,12.059 1127.38,12.059 L1116.366,11.837 L1116.366,62.252 L1150.238,42.532 C1150.239,42.532 1152.296,49.22 1152.296,49.219 L1116.366,70.956 L1116.366,117.859 L1162.294,96.465 L1164.846,102.66 L1116.366,124.697 L1116.366,259.28 L1121.178,263.149 L1120.635,264.798 L1116.366,267.367 L1116.366,387.268 L1119.155,387.86 L1118.399,417.86 C1118.399,417.861 1122.808,419.594 1125.523,422.852 L1125.664,424.941 L1203.237,405.465 L1205.964,369.324 C1205.965,369.325 1205.8,351.553 1214.356,347.604 C1220.766,344.645 1226.368,354.021 1226.368,354.021 L1228.163,326.728 L1233.05,326.728 L1234.136,322.926 L1239.696,322.921 L1239.696,309.099 L1259.278,309.099 L1261.833,316.952 L1280.84,316.952 L1281.985,308.934 L1302.563,308.806 L1302.225,342.831 C1302.226,342.832 1311.137,346.021 1321.244,350.513 C1331.352,355.005 1336.218,365.862 1336.218,365.861 C1347.922,353.915 1356.433,366.61 1356.433,372.225 C1356.433,377.841 1353.438,381.21 1353.438,381.21 L1353.438,393.188 L1351.94,398.803 L1351.94,405.916 L1351.566,412.28 L1347.448,454.956 L1346.325,463.941 L1345.934,479.777 C1377.778,489.266 1378.146,499.505 1378.146,499.505 L1354.561,522.714 L1376.647,523.088 L1381.822,529.854 L1382.921,529.109 L1383.724,526.498 L1388.744,526.297 L1388.818,527.575 L1396.85,527.575 L1396.893,526.278 L1401.621,526.278 L1401.638,527.535 L1412.641,527.502 L1412.641,526.297 L1417.059,526.297 L1417.059,527.502 L1428.106,527.491 L1428.316,526.362 L1432.081,526.278 L1432.12,527.632 L1440.701,527.701 L1440.701,526.278 L1444.634,526.278 L1444.592,527.826 L1447.604,527.91 L1449.657,527.759 L1450.568,501.853 L1461.433,501.654 L1461.931,498.065 L1471.002,498.065 L1471.101,493.879 L1489.541,493.779 L1490.538,496.969 L1501.681,496.884 L1502.798,494.477 L1518.347,494.377 L1519.444,497.567 L1539.179,497.467 L1542.169,494.377 L1552.178,486.186 L1554.304,490.048 L1574.894,499.407 L1575.402,512.102 L1579.07,512.121 L1579.873,513.929 L1583.086,513.929 L1584.693,511.519 L1590.623,511.451 L1606.125,524.96 L1590.617,501.653 C1590.617,501.654 1583.505,494.167 1577.515,488.927 C1571.525,483.686 1561.418,478.819 1561.418,478.819 L1554.679,478.444 L1554.679,454.111 L1597.729,453.736 L1594.021,448.508 L1582.79,448.883 L1580.544,445.514 L1547.242,445.336 L1547.502,436.781 L1597.367,436.894 L1597.238,435.855 L1605.251,434.894 C1605.252,434.895 1601.398,431.695 1605.252,428.157 C1609.321,424.421 1613.862,427.783 1613.862,427.782 C1613.862,427.783 1619.068,375.498 1619.443,369.134 C1619.817,362.77 1623.56,357.529 1629.176,355.283 C1634.791,353.037 1638.909,358.278 1638.909,358.278 C1638.909,358.278 1639.219,355.661 1643.401,351.914 C1645.705,349.849 1647.145,349.668 1647.519,349.668 C1647.893,349.668 1667.359,351.165 1685.328,355.657 C1703.297,360.149 1713.031,370.257 1713.03,370.257 L1707.653,413.318 L1704.512,440.7 L1706.201,440.57 L1705.682,449.016 L1703.732,449.016 L1702.043,475.132 L1746.446,454.111 L1760.784,451.074 L1760.686,448.494 C1760.687,448.494 1761.109,444.272 1762.094,443.146 C1763.08,442.02 1765.191,442.865 1765.191,442.865 L1770.624,442.531 L1770.376,431.848 C1770.377,431.849 1759.196,428.121 1758.947,412.966 C1758.756,401.29 1765.159,393.09 1776.339,393.09 C1787.519,393.09 1794.587,400.937 1794.475,409.736 C1794.227,429.363 1783.295,432.345 1783.295,432.345 L1782.798,442.283 L1789.009,442.779 L1791.368,443.568 L1792.213,445.96 L1792.239,452.22 L1819.568,453.463 L1820.065,417.189 L1817.554,414.526 L1819.052,410.408 L1821.794,410.328 L1821.924,404.611 C1821.924,404.612 1816.806,402.174 1816.432,395.435 C1816.058,388.697 1820.226,385.969 1825.093,385.969 C1829.959,385.969 1833.503,386.873 1833.877,395.109 C1834.252,403.344 1828.865,404.045 1828.865,404.045 L1829.084,410.198 C1829.085,410.199 1831.943,409.419 1832.983,413.03 C1834.265,417.479 1831.111,418.645 1831.111,418.645 L1831.742,459.674 L1840.469,460.946 L1840.095,477.417 L1844.213,478.54 L1844.213,490.145 L1841.593,490.894 L1840.469,526.457 C1840.47,526.458 1832.983,529.453 1828.117,533.197 C1823.25,536.94 1819.507,546.674 1819.506,546.674 L1819.506,559.4 L1828.49,576.62 L1845.336,575.123 L1848.331,571.754 L1858.008,571.01 L1857.74,563.518 L1844.962,563.893 C1844.963,563.894 1841.593,563.519 1837.475,561.273 C1833.358,559.027 1833.358,555.658 1833.358,555.658 L1833.731,539.934 L1837.1,541.432 L1859.507,541.843 C1859.989,541.037 1860.663,540.355 1861.296,539.667 C1865.21,535.583 1865.381,535.923 1865.381,535.923 L1864.018,533.88 L1868.954,529.455 L1875.081,529.285 L1895.845,513.797 C1895.845,513.798 1897.207,509.884 1901.802,509.203 C1903.791,509.129 1902.963,509.013 1904.307,509.315 L1911.317,511.558 L1919.157,512.019 L1921.924,506.485 L1938.066,506.485 L1942.678,510.635 L1951.44,510.635 L1953.746,507.407 L1969.426,506.946 L1971.732,510.174 L1991.101,511.558 C1991.102,511.559 1993.332,505.754 2000.326,506.947 C2003.606,507.507 2004.888,510.935 2005.17,514.259 C2005.229,514.052 2005.912,512.997 2005.996,512.799 C2007.464,509.312 2011.394,509.446 2013.153,509.862 C2019.59,511.385 2019.234,516.171 2019.234,516.171 L2045.059,523.549 L2044.137,537.384 L2048.749,537.384 L2050.594,540.151 L2053.822,540.151 L2053.822,537.384 L2060.278,537.384 L2062.123,540.612 L2065.351,540.612 L2070.424,553.986 L2064.873,563.95 L2017.85,563.21 L2002.17,568.744 L2017.85,569.666 L2020.617,576.584 L2084.26,572.895 L2084.721,566.438 L2088.41,565.055 L2087.949,541.996 L2092.561,539.229 L2093.483,533.694 C2093.484,533.696 2090.717,529.084 2088.872,524.933 C2087.027,520.783 2084.721,516.632 2084.721,516.632 L2081.492,515.247 L2081.954,504.179 L2093.944,504.179 L2093.944,484.348 L2088.871,482.042 L2088.871,467.746 C2088.872,467.747 2091.639,463.596 2100.402,456.217 C2109.164,448.839 2121.878,451.881 2121.878,451.881 L2117.926,467.285 C2117.926,467.286 2114.698,477.893 2114.237,482.043 C2113.776,486.194 2111.581,485.308 2111.581,485.308 L2111.432,505.603 L2121.688,505.754 C2140.68,492.471 2173.027,498.117 2173.027,498.117 L2183.378,431.04 L2179.261,431.04 L2180.252,424.842 L2184.126,424.833 L2198.198,335.386 L2195.713,335.387 L2197.36,316.729 L2200.504,316.729 L2210.17,255.854 L2209.104,255.854 L2209.792,250.148 L2210.849,250.135 L2211.818,239.666 L2223.076,239.278 L2222.398,249.553 L2224.821,249.553 L2224.337,256.048 L2222.01,256.048 L2215.694,295.049 L2258.326,271.526 L2258.51,275.364 L2214.993,299.375 L2212.166,316.834 L2219.188,316.939 L2219.385,335.387 L2218.559,335.387 L2218.559,339.077 L2219.846,339.077 L2222.152,341.844 L2223.265,375.629 L2221.23,377.355 L2221.257,390.303 L2223.074,390.268 L2223.265,404.513 L2220.404,404.891 L2220.334,424.6 L2222.573,424.6 L2222.929,431.082 L2220.773,431.102 L2220.938,483.509 L2222.613,483.426 L2223.074,478.814 L2235.065,478.353 L2235.526,506.485 L2240.138,506.485 L2241.06,499.106 L2249.823,497.722 L2278.166,497.097 L2278.781,506.323 L2328.903,504.785 C2328.904,504.785 2329.211,495.56 2329.211,495.56 L2290.466,494.637 L2281.917,486.648 L2283.259,430.803 L2302.188,427.178 L2304.604,424.896 L2332.445,424.846 L2333.735,422.345 L2346.488,422.479 L2348.099,424.627 L2365.685,424.493 L2365.685,422.614 L2373.524,422.614 L2373.524,391.638 L2377.039,391.638 L2377.039,422.614 L2379.244,422.614 L2380.183,424.762 L2385.48,423.924 L2388.507,421.406 L2414.535,423.924 L2420.665,428.67 L2458.507,429.464 L2529.391,428.145 C2531.094,430.593 2529.624,433.257 2529.624,433.257 L2463.227,434.283 C2463.228,434.284 2456.831,443.429 2454.347,445.338 C2452.413,446.825 2446.143,450.631 2446.143,450.631 C2446.143,450.631 2445.541,457.516 2448.981,469.424 C2452.421,481.333 2451.627,486.096 2451.627,486.096 L2434.955,486.095 L2434.598,500.402 L2452.488,501.331 L2454.346,506.21 L2463.872,505.745 L2464.337,520.382 L2474.108,520.563 L2475.652,485.508 L2487.337,486.169 L2486.675,532.249 L2495.715,532.249 L2495.274,544.816 L2470.359,544.753 C2470.359,544.753 2472.328,557.402 2472.328,557.402 C2474.839,568.84 2481.59,574.603 2481.59,574.603 C2481.59,574.603 2531.212,577.831 2531.212,577.831 C2531.212,577.831 2559.813,575.427 2559.813,575.427 C2559.813,575.427 2558.131,562.929 2558.131,562.929 C2558.131,562.929 2515.975,552.024 2515.975,552.024 C2515.975,552.024 2510.979,525.829 2510.979,521.129 C2510.979,511.867 2514.419,494.401 2514.419,494.401 L2531.884,492.283 L2533.969,489.525 L2562.845,489.107 L2564.168,486.99 L2574.754,486.197 L2579.517,488.578 L2593.807,488.578 L2596.983,486.197 L2603.548,486.482 L2603.548,460.067 L2606.954,460.067 L2606.954,486.63 L2609.156,486.726 L2609.949,488.314 L2616.301,488.314 L2616.991,486.446 L2626.092,486.197 L2627.945,488.314 L2644.087,487.784 L2648.056,494.135 L2649.37,502.487 L2679.378,501.634 C2677.642,500.976 2677.164,500.565 2675.348,500.167 L2675.348,492.073 L2681.128,488.027 C2681.129,488.028 2688.644,487.45 2694.424,490.34 C2700.205,493.23 2701.262,500.446 2701.262,500.446 L2762.775,498.113 L2762.946,504.633 L2703.594,506.568 C2703.595,506.569 2706.339,517.547 2707.437,520.475 C2708.535,523.403 2708.169,530.356 2708.169,530.356 L2708.168,545.725 C2708.169,545.726 2723.156,552.133 2730.658,552.133 C2738.16,552.133 2740.356,558.355 2740.356,558.355 C2740.356,558.355 2743.833,549.023 2753.897,549.023 C2763.961,549.023 2765.059,559.453 2765.059,559.453 L2764.692,565.124 L2770.181,565.673 L2770.364,574.456 L2774.024,574.456 C2774.025,574.457 2772.853,571.021 2774.069,568.065 C2775.142,565.457 2776.181,564.775 2776.77,564.759 L2777.218,564.758 L2780.328,565.49 L2780.27,480.481 C2786.148,479.21 2786.671,481.301 2786.671,481.301 L2787.79,535.335 L2800.599,574.492 C2800.599,574.493 2810.835,574.493 2810.835,574.493 C2810.835,574.493 2809.945,507.669 2810.717,506.64 C2811.814,505.176 2812.363,505.359 2812.363,505.359 L2817.488,505.288 C2817.489,505.289 2818.22,505.289 2820.233,507.301 C2822.246,509.314 2821.514,510.046 2821.514,510.046 L2820.638,542.936 L2855.192,542.64 L2857.937,544.104 L2858.444,561.071 L2876.311,560.366 L2876.128,558.903 L2885.638,558.797 L2886.375,522.855 L2884.728,525.6 L2859.659,526.332 C2859.66,526.333 2857.647,524.503 2854.903,522.49 C2852.158,520.478 2852.524,519.014 2852.524,519.014 C2852.524,519.014 2852.524,514.805 2852.89,511.329 C2855.177,505.561 2861.673,503.094 2861.673,503.094 L2880.885,502.91 L2882.715,505.472 L2884.911,506.021 L2886.557,503.642 L2894.06,504.191 L2896.988,506.204 L2905.222,503.093 L2907.417,506.204 L2928.826,507.302 C2928.827,507.303 2931.389,502.18 2931.755,499.801 C2932.121,497.422 2934.682,496.507 2934.682,496.507 C2934.682,496.507 2940.538,496.324 2943.648,498.337 C2946.759,500.35 2945.112,501.265 2945.112,501.265 L2944.38,509.132 L2945.844,509.498 L2945.478,519.928 L2944.014,521.94 L2928.643,522.123 L2906.32,524.502 L2905.222,556.158 L2914.188,555.609 L2914.371,549.205 L2916.75,547.741 C2916.75,547.742 2916.567,545.18 2917.482,543.899 C2918.397,542.618 2921.325,542.801 2921.325,542.801 L2921.141,536.213 L2922.239,535.115 L2960.769,534.508 L2960.769,491.198 L2966.748,491.198 L2966.748,534.414 L2968.716,534.383 L2969.082,533.285 L2976.584,533.285 L2977.133,527.064 L2989.942,523.587 C2989.943,523.588 2992.138,527.431 2993.785,529.993 C2995.432,532.554 2995.132,535.737 2995.132,535.737 L3007.195,536.062 C3007.196,536.063 3007.848,545.519 3004.261,549.757 C3000.675,553.996 2998.719,553.67 2998.719,553.67 L2983.176,553.609 L2983.176,568.028 L2985.595,570.985 L3016.72,570.538 L3017.134,544.487 L3042.771,544.9 L3043.192,555.115 L3034.039,555.115 L3034.398,570.908 L3064.688,571.365 C3064.688,571.366 3063.864,565.975 3064.688,561.854 C3065.512,557.734 3073.126,557.259 3073.126,557.259 L3091.256,557.808 L3092.63,555.885 L3094.278,554.511 L3098.674,554.511 L3100.047,555.335 L3112.409,555.335 L3112.409,553.961 L3117.08,554.511 L3119.003,555.61 L3131.365,555.61 L3132.738,553.412 L3147.804,553.17 L3161.265,508.941 L3161.309,434.33 C3166.17,432.456 3168.067,434.905 3168.067,434.905 L3169.825,551.764 L3173.946,553.137 L3174.495,554.786 L3186.858,555.885 C3186.858,555.886 3188.232,552.864 3190.704,552.864 C3193.177,552.864 3193.452,554.237 3193.452,554.237 L3193.451,561.654 C3193.452,561.655 3193.726,569.072 3194.825,569.896 C3195.924,570.72 3198.122,569.896 3198.122,569.896 L3210.468,569.836 L3221.532,570.297 L3223.376,575.83 L3228.909,575.83 L3229.37,584.128 L3233.058,585.05 L3233.519,593.81 L3229.831,596.115 L3233.98,654.664 C3233.981,654.665 3198.021,657.893 3181.424,658.815 C3164.828,659.737 3104.032,666.895 3104.032,666.895 L3104.031,670.582 C3150.536,664.808 3155.146,668.035 3159.756,671.723 C3164.367,675.411 3162.523,680.022 3162.522,680.021 L3149.152,741.336 C3149.153,741.337 3149.153,744.565 3144.543,748.714 C3139.933,752.863 3137.627,752.402 3137.627,752.402 L3086.453,754.245 C3086.454,754.246 3081.844,754.246 3076.312,751.941 C3070.78,749.636 3071.701,748.253 3071.701,748.253 C3071.701,748.253 3061.185,693.702 3060.686,687.712 C3059.831,677.446 3094.621,672.313 3094.621,672.313 L3094.621,668.32 L2951.181,690.278 L2950.61,732.769 L2980.931,733.836 L2980.931,731.976 L2988.538,732.484 C2988.539,732.485 2995.844,699.563 3000.239,696.182 C3004.635,692.801 3011.565,692.801 3017.82,698.211 C3024.075,703.62 3023.061,721.708 3023.06,721.708 C3023.061,721.708 3042.163,731.682 3044.36,732.527 C3046.558,733.372 3049.601,744.868 3039.965,747.741 C3030.33,750.615 3031.344,750.615 3024.751,751.63 C3018.158,752.644 3015.96,756.87 3012.749,763.632 C3009.537,770.394 3004.127,777.494 2999.901,779.015 C2995.675,780.536 2990.942,778.001 2987.054,776.31 C2983.166,774.62 2984.349,753.32 2984.349,753.32 L2977.755,753.319 L2978.343,750.575 C2978.344,750.576 2914.003,747.598 2908.406,747.598 C2902.808,747.598 2902.077,742.879 2902.077,742.879 L2748.144,734.482 C2748.145,734.483 2741.148,734.483 2729.953,740.081 C2718.758,745.678 2713.86,757.573 2713.86,757.573 L2483.659,756.872 C2483.66,756.873 1870.728,758.273 1812.653,758.273 C1754.579,758.273 1477.761,762.841 1374.906,762.841 C1272.051,762.841 697.415,763.767 697.415,763.767 C697.415,763.767 701.58,810.75 661.656,810.75 C617.57,810.75 625.272,762.471 625.272,762.471 C625.272,762.471 372.815,761.453 223.078,761.453 C89.801,761.453 63.417,621.132 57.82,591.046 C52.222,560.959 42.88,526.208 36.583,517.112 C35.456,515.484 33.107,516.774 31.493,515.261 C24.088,508.318 13.488,498.582 12.339,491.689 C10.94,483.293 18.998,478.239 18.998,478.239 L14.37,469.446 L16.031,464.058 L24.691,465.39 L26.467,462.282 L30.242,464.058 L33.573,464.058 L33.129,369.911 C40.993,368.434 40.679,371.572 40.679,371.572 L41.566,418.422 L63.745,488.619 C63.746,488.62 100.092,490.491 115.37,492.242 C130.647,493.992 153.245,495.902 153.245,495.902 L154.199,470.916 L169.794,471.393 L171.863,474.258 L171.386,495.423 L184.117,495.423 C184.118,495.425 184.913,494.629 188.096,493.038 C191.279,491.446 192.075,493.197 192.075,493.197 L195.098,489.217 L211.33,489.217 L213.08,495.742 L216.104,496.856 C216.105,496.857 215.787,495.584 216.105,493.992 C216.423,492.401 217.219,491.764 217.219,491.764 L231.7,491.604 C231.7,491.605 232.496,491.605 233.61,493.197 C234.724,494.788 234.406,498.289 234.406,498.289 L244.59,498.924 L244.908,501.312 L252.706,501.152 L252.706,499.402 L255.093,499.402 L255.571,501.152 L266.71,501.789 L268.143,499.084 L283.078,498.939 L283.579,501.152 L285.966,500.993 L286.921,498.924 L292.491,498.129 L292.968,496.378 L294.878,492.559 L312.383,493.673 L313.179,500.516 L316.043,505.927 L324.955,506.086 L327.82,506.245 L340.052,504.652 L360.121,504.925 L360.314,498.746 L361.971,498.316 L363.683,493.863 L386.458,493.35 C386.459,493.351 388.342,495.577 389.884,497.118 C391.425,498.659 390.823,503.573 390.823,503.573 L404.968,503.784 L405.304,512.069 L412.835,512.648 L414.218,517.18 L446.24,517.862 L451.219,513.672 L450.581,509.206 L434.632,506.654 C434.633,506.655 436.228,492.302 437.504,487.198 C438.78,482.095 440.796,468.709 440.796,468.709 L429.631,462.01 L357.544,453.079 L358.399,445.412 L442.006,452.728 L442.867,451.007 L466.21,451.154 L468.762,446.688 L496.831,442.542 L499.702,445.731 L501.325,445.731 L501.325,395.109 L506.079,395.109 L506.079,443.76 L506.168,443.483 L518.927,443.483 L520.33,445.843 L536.93,445.843 L537.746,444.121 L550.824,444.121 L552.332,445.412 L567.642,447.007 L568.28,445.093 L577.436,446.908 L583.315,451.107 L602.107,453.915 L604.883,509.916 L589.765,510.07 L588.222,512.539 L557.83,517.321 L557.83,521.486 L609.603,521.624 L609.603,418.92 L614.954,418.92 L614.954,521.638 L618.585,521.648 L621.104,498.134 L647.137,498.134 L650.496,511.57 L659.734,511.57 L662.253,521.648 L735.766,521.307 L735.393,479.592 C735.393,479.592 712.628,478.664 711.35,472.135 C710.109,465.795 714.701,458.88 729.996,453.091 C734.199,451.627 732.21,452.243 735.949,451.192 L735.949,411.005 L743.107,411.005 L743.107,449.316 C754.819,446.636 766.737,444.833 778.691,443.638 L783.48,443.143 L793.275,410.69 L802.392,405.116 L802.537,438.526 L807.026,439.124 L815.704,431.344 L835.702,430.405 L832.71,428.31 L832.71,419.931 L836.301,419.931 L836.301,417.238 L830.316,403.174 L830.532,383.303 L832.1,382.154 L831.812,369.957 L830.14,367.345 L833.224,360.876 L848.27,358.885 L856.35,358.885 L857.528,357.853 L877.721,357.792 L880.393,354.592 L896.524,354.527 L898.293,347.789 L915.9,348.412 L921.023,353.007 L926.242,353.007 L926.373,350.207 L924.578,347.813 C924.578,347.814 924.101,338.969 923.98,334.048 C923.858,329.128 926.985,315.648 926.985,315.648 L946.436,315.648 L949.414,313.384 L955.776,314.031 L962.759,314.109 C962.76,314.11 964.524,307.54 965.005,305.447 C966.815,297.584 970.899,297.567 970.899,297.567 L991.577,297.64 L991.956,316.836 L994.362,317.799 L993.56,353.733 L991.795,353.733 L992.276,372.182 L995.324,373.946 L996.403,384.551 L1025.002,384.855 L1028.371,382.288 L1028.624,380.811 L1024.937,380.771 L1026.311,373.421 L1029.883,373.46 L1030.476,369.998 L1026.688,369.956 L1028.062,362.606 L1031.735,362.647 L1032.253,359.625 L1028.568,359.584 L1029.942,352.234 L1033.512,352.274 L1034.021,349.3 L1030.54,349.261 L1031.914,341.911 L1035.281,341.948 L1035.859,338.571 L1032.151,338.53 L1033.525,331.18 L1037.118,331.22 L1037.669,328.002 L1034.161,327.964 L1035.535,320.613 L1038.928,320.651 L1039.458,317.561 L1035.902,317.521 L1037.276,310.171 L1040.717,310.209 L1041.167,307.578 L1037.772,307.54 L1039.146,300.19 L1042.427,300.227 L1042.871,297.633 L1039.458,297.595 L1040.831,290.245 L1044.13,290.281 L1044.618,287.43 L1041.069,287.391 L1042.442,280.041 L1045.878,280.079 L1047.696,268.022 L1041.015,268.113 L1040.594,258.159 L1048.259,258.159 L1049.179,235.164 L1051.635,235.47 L1052.233,259.101 L1105.415,259.208 L1105.917,236.697 L1090.28,234.857 L1091.2,221.98 L1098.251,221.674 L1099.784,212.476 L1100.704,209.41 L1100.704,204.197 L1104.69,203.584 L1106.836,191.627 C1106.837,191.628 1100.705,190.708 1100.705,185.189 C1100.705,179.671 1105.917,178.751 1105.917,178.751 L1106.047,163.451 L1087.322,163.451 C1087.323,163.452 1083.39,155.043 1083.368,149.146 C1083.351,144.842 1088.02,138.678 1088.02,138.678 C1088.02,138.678 1086.714,135.956 1086.159,131.699 C1084.414,118.324 1105.931,121.464 1105.931,121.464 L1105.815,74.262 L1093.486,74.378 L1094.417,61.7 L1099.651,61.468 L1100.446,56.155 L1106.28,56.118 L1105.815,11.71 L1094.184,11.593 C1094.185,11.595 1093.387,7.28 1095.559,4.564 C1095.756,4.407 1095.919,4.195 1096.149,4.092 C1100.264,2.258 1107.332,2.416 1111.847,2.349 L1111.846,2.348 z M2928.864,693.532 C2910.709,696.59 2892.554,699.643 2874.385,702.612 C2854.561,705.839 2775.516,729.632 2775.516,729.632 L2902.663,735.526 C2902.663,735.528 2903.419,733.266 2906.124,731.914 C2908.829,730.561 2928.938,731.914 2928.938,731.914 L2928.864,693.532 z M1064.7,482.525 L1032.305,482.651 L1015.492,568.872 L1035.71,577.858 L1036.459,532.929 C1036.459,532.93 1037.208,520.949 1046.943,510.465 C1051.956,505.139 1058.309,501.009 1065.523,499.498 L1064.7,482.525 z M2692.808,517.354 L2664.53,521.727 C2666.079,526.133 2671.876,531.661 2673.567,536.013 C2676.478,543.423 2677.065,559.335 2677.065,559.335 L2661.614,563.416 L2661.614,575.66 L2694.557,574.494 L2694.822,558.352 L2696.824,557.282 L2697.023,546.667 L2696.56,546.647 L2695.496,545.185 L2692.349,541.587 L2692.808,517.354 z M1900.366,563.518 L1878.263,563.518 L1878.064,569.467 L1882.397,569.133 L1891.007,568.759 L1892.504,571.754 L1903.361,571.005 L1903.735,567.262 L1900.366,563.518 z M2956.658,551.712 L2957.637,571.275 L2963.958,570.853 L2976.092,568.196 L2976.268,552.043 L2956.658,551.712 z M1564.198,549.667 L1560.454,552.288 L1551.095,552.662 L1551.095,555.657 L1560.454,556.031 L1562.326,559.775 L1571.31,559.775 L1572.433,557.529 L1587.608,553.552 L1598.55,550.333 L1588.037,549.904 L1564.198,549.667 z M1398.591,548.911 L1406.221,550.042 L1408.093,555.283 L1431.677,558.652 L1436.544,559.026 L1447.026,558.652 L1450.448,552.118 L1448.788,550.596 L1398.591,548.911 z M1896.421,531.912 L1892.759,532.065 L1882.399,539.837 L1881.86,542.18 L1889.51,542.18 L1889.859,540.915 L1895.125,541.057 L1895.963,542.136 L1900.084,541.984 L1896.421,531.912 z M1202.893,414.189 L1126.759,435.279 L1127.598,478.036 L1113.133,478.141 L1113.587,498.483 L1119.905,518.405 L1120.892,495.039 L1122.044,493.229 L1131.496,493.45 C1144.304,502.202 1145.892,511.289 1145.892,511.289 L1145.891,522.228 L1158.65,522.232 C1177.658,507.571 1179.59,507.219 1186.65,500.702 C1193.71,494.185 1195.579,480.96 1195.579,480.96 L1197.208,472.27 L1199.923,438.6 L1202.893,414.189 z M802.182,474.013 L743.79,478.965 L743.79,521.99 L802.865,521.99 L802.182,474.013 z M2213.32,431.009 L2190.794,430.874 L2180.676,498.117 L2204.59,498.117 L2204.948,478.813 L2213.32,478.678 L2213.32,431.009 z M2213.32,404.304 L2194.87,404.446 L2191.485,424.787 L2213.211,425.019 L2213.32,404.304 z M2213.32,335.546 L2206.239,335.546 L2195.953,399.017 L2213.32,399.017 L2213.32,335.546 z M1043.991,352.313 L1037.31,386.221 L1104.69,386.317 L1105.475,352.563 L1043.991,352.313 z M1078.461,305.666 L1047.828,344.369 L1103.246,344.778 L1078.461,305.666 z M1106.09,270.759 L1081.191,302.217 L1105.774,341.14 L1106.09,270.759 z M1057.641,272.81 L1046.1,339.645 L1075.871,301.578 L1057.641,272.81 z M1101.886,268.313 L1059.778,268.313 L1078.591,298.1 L1101.886,268.313 z" fill="#000000"/>
      <path d="M1111.846,2.348 C1113.297,2.345 1114.747,2.354 1116.196,2.392 C1116.196,2.392 1119.122,2.616 1126.61,6.194 C1129.709,7.674 1127.38,12.059 1127.38,12.059 L1116.366,11.837 L1116.366,62.252 L1150.238,42.532 C1150.239,42.532 1152.296,49.22 1152.296,49.219 L1116.366,70.956 L1116.366,117.859 L1162.294,96.465 L1164.846,102.66 L1116.366,124.697 L1116.366,259.28 L1121.178,263.149 L1120.635,264.798 L1116.366,267.367 L1116.366,387.268 L1119.155,387.86 L1118.399,417.86 C1118.399,417.861 1122.808,419.594 1125.523,422.852 L1125.664,424.941 L1203.237,405.465 L1205.964,369.324 C1205.965,369.325 1205.8,351.553 1214.356,347.604 C1220.766,344.645 1226.368,354.021 1226.368,354.021 L1228.163,326.728 L1233.05,326.728 L1234.136,322.926 L1239.696,322.921 L1239.696,309.099 L1259.278,309.099 L1261.833,316.952 L1280.84,316.952 L1281.985,308.934 L1302.563,308.806 L1302.225,342.831 C1302.226,342.832 1311.137,346.021 1321.244,350.513 C1331.352,355.005 1336.218,365.862 1336.218,365.861 C1347.922,353.915 1356.433,366.61 1356.433,372.225 C1356.433,377.841 1353.438,381.21 1353.438,381.21 L1353.438,393.188 L1351.94,398.803 L1351.94,405.916 L1351.566,412.28 L1347.448,454.956 L1346.325,463.941 L1345.934,479.777 C1377.778,489.266 1378.146,499.505 1378.146,499.505 L1354.561,522.714 L1376.647,523.088 L1381.822,529.854 L1382.921,529.109 L1383.724,526.498 L1388.744,526.297 L1388.818,527.575 L1396.85,527.575 L1396.893,526.278 L1401.621,526.278 L1401.638,527.535 L1412.641,527.502 L1412.641,526.297 L1417.059,526.297 L1417.059,527.502 L1428.106,527.491 L1428.316,526.362 L1432.081,526.278 L1432.12,527.632 L1440.701,527.701 L1440.701,526.278 L1444.634,526.278 L1444.592,527.826 L1447.604,527.91 L1449.657,527.759 L1450.568,501.853 L1461.433,501.654 L1461.931,498.065 L1471.002,498.065 L1471.101,493.879 L1489.541,493.779 L1490.538,496.969 L1501.681,496.884 L1502.798,494.477 L1518.347,494.377 L1519.444,497.567 L1539.179,497.467 L1542.169,494.377 L1552.178,486.186 L1554.304,490.048 L1574.894,499.407 L1575.402,512.102 L1579.07,512.121 L1579.873,513.929 L1583.086,513.929 L1584.693,511.519 L1590.623,511.451 L1606.125,524.96 L1590.617,501.653 C1590.617,501.654 1583.505,494.167 1577.515,488.927 C1571.525,483.686 1561.418,478.819 1561.418,478.819 L1554.679,478.444 L1554.679,454.111 L1597.729,453.736 L1594.021,448.508 L1582.79,448.883 L1580.544,445.514 L1547.242,445.336 L1547.502,436.781 L1597.367,436.894 L1597.238,435.855 L1605.251,434.894 C1605.252,434.895 1601.398,431.695 1605.252,428.157 C1609.321,424.421 1613.862,427.783 1613.862,427.782 C1613.862,427.783 1619.068,375.498 1619.443,369.134 C1619.817,362.77 1623.56,357.529 1629.176,355.283 C1634.791,353.037 1638.909,358.278 1638.909,358.278 C1638.909,358.278 1639.219,355.661 1643.401,351.914 C1645.705,349.849 1647.145,349.668 1647.519,349.668 C1647.893,349.668 1667.359,351.165 1685.328,355.657 C1703.297,360.149 1713.031,370.257 1713.03,370.257 L1707.653,413.318 L1704.512,440.7 L1706.201,440.57 L1705.682,449.016 L1703.732,449.016 L1702.043,475.132 L1746.446,454.111 L1760.784,451.074 L1760.686,448.494 C1760.687,448.494 1761.109,444.272 1762.094,443.146 C1763.08,442.02 1765.191,442.865 1765.191,442.865 L1770.624,442.531 L1770.376,431.848 C1770.377,431.849 1759.196,428.121 1758.947,412.966 C1758.756,401.29 1765.159,393.09 1776.339,393.09 C1787.519,393.09 1794.587,400.937 1794.475,409.736 C1794.227,429.363 1783.295,432.345 1783.295,432.345 L1782.798,442.283 L1789.009,442.779 L1791.368,443.568 L1792.213,445.96 L1792.239,452.22 L1819.568,453.463 L1820.065,417.189 L1817.554,414.526 L1819.052,410.408 L1821.794,410.328 L1821.924,404.611 C1821.924,404.612 1816.806,402.174 1816.432,395.435 C1816.058,388.697 1820.226,385.969 1825.093,385.969 C1829.959,385.969 1833.503,386.873 1833.877,395.109 C1834.252,403.344 1828.865,404.045 1828.865,404.045 L1829.084,410.198 C1829.085,410.199 1831.943,409.419 1832.983,413.03 C1834.265,417.479 1831.111,418.645 1831.111,418.645 L1831.742,459.674 L1840.469,460.946 L1840.095,477.417 L1844.213,478.54 L1844.213,490.145 L1841.593,490.894 L1840.469,526.457 C1840.47,526.458 1832.983,529.453 1828.117,533.197 C1823.25,536.94 1819.507,546.674 1819.506,546.674 L1819.506,559.4 L1828.49,576.62 L1845.336,575.123 L1848.331,571.754 L1858.008,571.01 L1857.74,563.518 L1844.962,563.893 C1844.963,563.894 1841.593,563.519 1837.475,561.273 C1833.358,559.027 1833.358,555.658 1833.358,555.658 L1833.731,539.934 L1837.1,541.432 L1859.507,541.843 C1859.989,541.037 1860.663,540.355 1861.296,539.667 C1865.21,535.583 1865.381,535.923 1865.381,535.923 L1864.018,533.88 L1868.954,529.455 L1875.081,529.285 L1895.845,513.797 C1895.845,513.798 1897.207,509.884 1901.802,509.203 C1903.791,509.129 1902.963,509.013 1904.307,509.315 L1911.317,511.558 L1919.157,512.019 L1921.924,506.485 L1938.066,506.485 L1942.678,510.635 L1951.44,510.635 L1953.746,507.407 L1969.426,506.946 L1971.732,510.174 L1991.101,511.558 C1991.102,511.559 1993.332,505.754 2000.326,506.947 C2003.606,507.507 2004.888,510.935 2005.17,514.259 C2005.229,514.052 2005.912,512.997 2005.996,512.799 C2007.464,509.312 2011.394,509.446 2013.153,509.862 C2019.59,511.385 2019.234,516.171 2019.234,516.171 L2045.059,523.549 L2044.137,537.384 L2048.749,537.384 L2050.594,540.151 L2053.822,540.151 L2053.822,537.384 L2060.278,537.384 L2062.123,540.612 L2065.351,540.612 L2070.424,553.986 L2064.873,563.95 L2017.85,563.21 L2002.17,568.744 L2017.85,569.666 L2020.617,576.584 L2084.26,572.895 L2084.721,566.438 L2088.41,565.055 L2087.949,541.996 L2092.561,539.229 L2093.483,533.694 C2093.484,533.696 2090.717,529.084 2088.872,524.933 C2087.027,520.783 2084.721,516.632 2084.721,516.632 L2081.492,515.247 L2081.954,504.179 L2093.944,504.179 L2093.944,484.348 L2088.871,482.042 L2088.871,467.746 C2088.872,467.747 2091.639,463.596 2100.402,456.217 C2109.164,448.839 2121.878,451.881 2121.878,451.881 L2117.926,467.285 C2117.926,467.286 2114.698,477.893 2114.237,482.043 C2113.776,486.194 2111.581,485.308 2111.581,485.308 L2111.432,505.603 L2121.688,505.754 C2140.68,492.471 2173.027,498.117 2173.027,498.117 L2183.378,431.04 L2179.261,431.04 L2180.252,424.842 L2184.126,424.833 L2198.198,335.386 L2195.713,335.387 L2197.36,316.729 L2200.504,316.729 L2210.17,255.854 L2209.104,255.854 L2209.792,250.148 L2210.849,250.135 L2211.818,239.666 L2223.076,239.278 L2222.398,249.553 L2224.821,249.553 L2224.337,256.048 L2222.01,256.048 L2215.694,295.049 L2258.326,271.526 L2258.51,275.364 L2214.993,299.375 L2212.166,316.834 L2219.188,316.939 L2219.385,335.387 L2218.559,335.387 L2218.559,339.077 L2219.846,339.077 L2222.152,341.844 L2223.265,375.629 L2221.23,377.355 L2221.257,390.303 L2223.074,390.268 L2223.265,404.513 L2220.404,404.891 L2220.334,424.6 L2222.573,424.6 L2222.929,431.082 L2220.773,431.102 L2220.938,483.509 L2222.613,483.426 L2223.074,478.814 L2235.065,478.353 L2235.526,506.485 L2240.138,506.485 L2241.06,499.106 L2249.823,497.722 L2278.166,497.097 L2278.781,506.323 L2328.903,504.785 C2328.904,504.785 2329.211,495.56 2329.211,495.56 L2290.466,494.637 L2281.917,486.648 L2283.259,430.803 L2302.188,427.178 L2304.604,424.896 L2332.445,424.846 L2333.735,422.345 L2346.488,422.479 L2348.099,424.627 L2365.685,424.493 L2365.685,422.614 L2373.524,422.614 L2373.524,391.638 L2377.039,391.638 L2377.039,422.614 L2379.244,422.614 L2380.183,424.762 L2385.48,423.924 L2388.507,421.406 L2414.535,423.924 L2420.665,428.67 L2458.507,429.464 L2529.391,428.145 C2531.094,430.593 2529.624,433.257 2529.624,433.257 L2463.227,434.283 C2463.228,434.284 2456.831,443.429 2454.347,445.338 C2452.413,446.825 2446.143,450.631 2446.143,450.631 C2446.143,450.631 2445.541,457.516 2448.981,469.424 C2452.421,481.333 2451.627,486.096 2451.627,486.096 L2434.955,486.095 L2434.598,500.402 L2452.488,501.331 L2454.346,506.21 L2463.872,505.745 L2464.337,520.382 L2474.108,520.563 L2475.652,485.508 L2487.337,486.169 L2486.675,532.249 L2495.715,532.249 L2495.274,544.816 L2470.359,544.753 C2470.359,544.753 2472.328,557.402 2472.328,557.402 C2474.839,568.84 2481.59,574.603 2481.59,574.603 C2481.59,574.603 2531.212,577.831 2531.212,577.831 C2531.212,577.831 2559.813,575.427 2559.813,575.427 C2559.813,575.427 2558.131,562.929 2558.131,562.929 C2558.131,562.929 2515.975,552.024 2515.975,552.024 C2515.975,552.024 2510.979,525.829 2510.979,521.129 C2510.979,511.867 2514.419,494.401 2514.419,494.401 L2531.884,492.283 L2533.969,489.525 L2562.845,489.107 L2564.168,486.99 L2574.754,486.197 L2579.517,488.578 L2593.807,488.578 L2596.983,486.197 L2603.548,486.482 L2603.548,460.067 L2606.954,460.067 L2606.954,486.63 L2609.156,486.726 L2609.949,488.314 L2616.301,488.314 L2616.991,486.446 L2626.092,486.197 L2627.945,488.314 L2644.087,487.784 L2648.056,494.135 L2649.37,502.487 L2679.378,501.634 C2677.642,500.976 2677.164,500.565 2675.348,500.167 L2675.348,492.073 L2681.128,488.027 C2681.129,488.028 2688.644,487.45 2694.424,490.34 C2700.205,493.23 2701.262,500.446 2701.262,500.446 L2762.775,498.113 L2762.946,504.633 L2703.594,506.568 C2703.595,506.569 2706.339,517.547 2707.437,520.475 C2708.535,523.403 2708.169,530.356 2708.169,530.356 L2708.168,545.725 C2708.169,545.726 2723.156,552.133 2730.658,552.133 C2738.16,552.133 2740.356,558.355 2740.356,558.355 C2740.356,558.355 2743.833,549.023 2753.897,549.023 C2763.961,549.023 2765.059,559.453 2765.059,559.453 L2764.692,565.124 L2770.181,565.673 L2770.364,574.456 L2774.024,574.456 C2774.025,574.457 2772.853,571.021 2774.069,568.065 C2775.142,565.457 2776.181,564.775 2776.77,564.759 L2777.218,564.758 L2780.328,565.49 L2780.27,480.481 C2786.148,479.21 2786.671,481.301 2786.671,481.301 L2787.79,535.335 L2800.599,574.492 C2800.599,574.493 2810.835,574.493 2810.835,574.493 C2810.835,574.493 2809.945,507.669 2810.717,506.64 C2811.814,505.176 2812.363,505.359 2812.363,505.359 L2817.488,505.288 C2817.489,505.289 2818.22,505.289 2820.233,507.301 C2822.246,509.314 2821.514,510.046 2821.514,510.046 L2820.638,542.936 L2855.192,542.64 L2857.937,544.104 L2858.444,561.071 L2876.311,560.366 L2876.128,558.903 L2885.638,558.797 L2886.375,522.855 L2884.728,525.6 L2859.659,526.332 C2859.66,526.333 2857.647,524.503 2854.903,522.49 C2852.158,520.478 2852.524,519.014 2852.524,519.014 C2852.524,519.014 2852.524,514.805 2852.89,511.329 C2855.177,505.561 2861.673,503.094 2861.673,503.094 L2880.885,502.91 L2882.715,505.472 L2884.911,506.021 L2886.557,503.642 L2894.06,504.191 L2896.988,506.204 L2905.222,503.093 L2907.417,506.204 L2928.826,507.302 C2928.827,507.303 2931.389,502.18 2931.755,499.801 C2932.121,497.422 2934.682,496.507 2934.682,496.507 C2934.682,496.507 2940.538,496.324 2943.648,498.337 C2946.759,500.35 2945.112,501.265 2945.112,501.265 L2944.38,509.132 L2945.844,509.498 L2945.478,519.928 L2944.014,521.94 L2928.643,522.123 L2906.32,524.502 L2905.222,556.158 L2914.188,555.609 L2914.371,549.205 L2916.75,547.741 C2916.75,547.742 2916.567,545.18 2917.482,543.899 C2918.397,542.618 2921.325,542.801 2921.325,542.801 L2921.141,536.213 L2922.239,535.115 L2960.769,534.508 L2960.769,491.198 L2966.748,491.198 L2966.748,534.414 L2968.716,534.383 L2969.082,533.285 L2976.584,533.285 L2977.133,527.064 L2989.942,523.587 C2989.943,523.588 2992.138,527.431 2993.785,529.993 C2995.432,532.554 2995.132,535.737 2995.132,535.737 L3007.195,536.062 C3007.196,536.063 3007.848,545.519 3004.261,549.757 C3000.675,553.996 2998.719,553.67 2998.719,553.67 L2983.176,553.609 L2983.176,568.028 L2985.595,570.985 L3016.72,570.538 L3017.134,544.487 L3042.771,544.9 L3043.192,555.115 L3034.039,555.115 L3034.398,570.908 L3064.688,571.365 C3064.688,571.366 3063.864,565.975 3064.688,561.854 C3065.512,557.734 3073.126,557.259 3073.126,557.259 L3091.256,557.808 L3092.63,555.885 L3094.278,554.511 L3098.674,554.511 L3100.047,555.335 L3112.409,555.335 L3112.409,553.961 L3117.08,554.511 L3119.003,555.61 L3131.365,555.61 L3132.738,553.412 L3147.804,553.17 L3161.265,508.941 L3161.309,434.33 C3166.17,432.456 3168.067,434.905 3168.067,434.905 L3169.825,551.764 L3173.946,553.137 L3174.495,554.786 L3186.858,555.885 C3186.858,555.886 3188.232,552.864 3190.704,552.864 C3193.177,552.864 3193.452,554.237 3193.452,554.237 L3193.451,561.654 C3193.452,561.655 3193.726,569.072 3194.825,569.896 C3195.924,570.72 3198.122,569.896 3198.122,569.896 L3210.468,569.836 L3221.532,570.297 L3223.376,575.83 L3228.909,575.83 L3229.37,584.128 L3233.058,585.05 L3233.519,593.81 L3229.831,596.115 L3233.98,654.664 C3233.981,654.665 3198.021,657.893 3181.424,658.815 C3164.828,659.737 3104.032,666.895 3104.032,666.895 L3104.031,670.582 C3150.536,664.808 3155.146,668.035 3159.756,671.723 C3164.367,675.411 3162.523,680.022 3162.522,680.021 L3149.152,741.336 C3149.153,741.337 3149.153,744.565 3144.543,748.714 C3139.933,752.863 3137.627,752.402 3137.627,752.402 L3086.453,754.245 C3086.454,754.246 3081.844,754.246 3076.312,751.941 C3070.78,749.636 3071.701,748.253 3071.701,748.253 C3071.701,748.253 3061.185,693.702 3060.686,687.712 C3059.831,677.446 3094.621,672.313 3094.621,672.313 L3094.621,668.32 L2951.181,690.278 L2950.61,732.769 L2980.931,733.836 L2980.931,731.976 L2988.538,732.484 C2988.539,732.485 2995.844,699.563 3000.239,696.182 C3004.635,692.801 3011.565,692.801 3017.82,698.211 C3024.075,703.62 3023.061,721.708 3023.06,721.708 C3023.061,721.708 3042.163,731.682 3044.36,732.527 C3046.558,733.372 3049.601,744.868 3039.965,747.741 C3030.33,750.615 3031.344,750.615 3024.751,751.63 C3018.158,752.644 3015.96,756.87 3012.749,763.632 C3009.537,770.394 3004.127,777.494 2999.901,779.015 C2995.675,780.536 2990.942,778.001 2987.054,776.31 C2983.166,774.62 2984.349,753.32 2984.349,753.32 L2977.755,753.319 L2978.343,750.575 C2978.344,750.576 2914.003,747.598 2908.406,747.598 C2902.808,747.598 2902.077,742.879 2902.077,742.879 L2748.144,734.482 C2748.145,734.483 2741.148,734.483 2729.953,740.081 C2718.758,745.678 2713.86,757.573 2713.86,757.573 L2483.659,756.872 C2483.66,756.873 1870.728,758.273 1812.653,758.273 C1754.579,758.273 1477.761,762.841 1374.906,762.841 C1272.051,762.841 697.415,763.767 697.415,763.767 C697.415,763.767 701.58,810.75 661.656,810.75 C617.57,810.75 625.272,762.471 625.272,762.471 C625.272,762.471 372.815,761.453 223.078,761.453 C89.801,761.453 63.417,621.132 57.82,591.046 C52.222,560.959 42.88,526.208 36.583,517.112 C35.456,515.484 33.107,516.774 31.493,515.261 C24.088,508.318 13.488,498.582 12.339,491.689 C10.94,483.293 18.998,478.239 18.998,478.239 L14.37,469.446 L16.031,464.058 L24.691,465.39 L26.467,462.282 L30.242,464.058 L33.573,464.058 L33.129,369.911 C40.993,368.434 40.679,371.572 40.679,371.572 L41.566,418.422 L63.745,488.619 C63.746,488.62 100.092,490.491 115.37,492.242 C130.647,493.992 153.245,495.902 153.245,495.902 L154.199,470.916 L169.794,471.393 L171.863,474.258 L171.386,495.423 L184.117,495.423 C184.118,495.425 184.913,494.629 188.096,493.038 C191.279,491.446 192.075,493.197 192.075,493.197 L195.098,489.217 L211.33,489.217 L213.08,495.742 L216.104,496.856 C216.105,496.857 215.787,495.584 216.105,493.992 C216.423,492.401 217.219,491.764 217.219,491.764 L231.7,491.604 C231.7,491.605 232.496,491.605 233.61,493.197 C234.724,494.788 234.406,498.289 234.406,498.289 L244.59,498.924 L244.908,501.312 L252.706,501.152 L252.706,499.402 L255.093,499.402 L255.571,501.152 L266.71,501.789 L268.143,499.084 L283.078,498.939 L283.579,501.152 L285.966,500.993 L286.921,498.924 L292.491,498.129 L292.968,496.378 L294.878,492.559 L312.383,493.673 L313.179,500.516 L316.043,505.927 L324.955,506.086 L327.82,506.245 L340.052,504.652 L360.121,504.925 L360.314,498.746 L361.971,498.316 L363.683,493.863 L386.458,493.35 C386.459,493.351 388.342,495.577 389.884,497.118 C391.425,498.659 390.823,503.573 390.823,503.573 L404.968,503.784 L405.304,512.069 L412.835,512.648 L414.218,517.18 L446.24,517.862 L451.219,513.672 L450.581,509.206 L434.632,506.654 C434.633,506.655 436.228,492.302 437.504,487.198 C438.78,482.095 440.796,468.709 440.796,468.709 L429.631,462.01 L357.544,453.079 L358.399,445.412 L442.006,452.728 L442.867,451.007 L466.21,451.154 L468.762,446.688 L496.831,442.542 L499.702,445.731 L501.325,445.731 L501.325,395.109 L506.079,395.109 L506.079,443.76 L506.168,443.483 L518.927,443.483 L520.33,445.843 L536.93,445.843 L537.746,444.121 L550.824,444.121 L552.332,445.412 L567.642,447.007 L568.28,445.093 L577.436,446.908 L583.315,451.107 L602.107,453.915 L604.883,509.916 L589.765,510.07 L588.222,512.539 L557.83,517.321 L557.83,521.486 L609.603,521.624 L609.603,418.92 L614.954,418.92 L614.954,521.638 L618.585,521.648 L621.104,498.134 L647.137,498.134 L650.496,511.57 L659.734,511.57 L662.253,521.648 L735.766,521.307 L735.393,479.592 C735.393,479.592 712.628,478.664 711.35,472.135 C710.109,465.795 714.701,458.88 729.996,453.091 C734.199,451.627 732.21,452.243 735.949,451.192 L735.949,411.005 L743.107,411.005 L743.107,449.316 C754.819,446.636 766.737,444.833 778.691,443.638 L783.48,443.143 L793.275,410.69 L802.392,405.116 L802.537,438.526 L807.026,439.124 L815.704,431.344 L835.702,430.405 L832.71,428.31 L832.71,419.931 L836.301,419.931 L836.301,417.238 L830.316,403.174 L830.532,383.303 L832.1,382.154 L831.812,369.957 L830.14,367.345 L833.224,360.876 L848.27,358.885 L856.35,358.885 L857.528,357.853 L877.721,357.792 L880.393,354.592 L896.524,354.527 L898.293,347.789 L915.9,348.412 L921.023,353.007 L926.242,353.007 L926.373,350.207 L924.578,347.813 C924.578,347.814 924.101,338.969 923.98,334.048 C923.858,329.128 926.985,315.648 926.985,315.648 L946.436,315.648 L949.414,313.384 L955.776,314.031 L962.759,314.109 C962.76,314.11 964.524,307.54 965.005,305.447 C966.815,297.584 970.899,297.567 970.899,297.567 L991.577,297.64 L991.956,316.836 L994.362,317.799 L993.56,353.733 L991.795,353.733 L992.276,372.182 L995.324,373.946 L996.403,384.551 L1025.002,384.855 L1028.371,382.288 L1028.624,380.811 L1024.937,380.771 L1026.311,373.421 L1029.883,373.46 L1030.476,369.998 L1026.688,369.956 L1028.062,362.606 L1031.735,362.647 L1032.253,359.625 L1028.568,359.584 L1029.942,352.234 L1033.512,352.274 L1034.021,349.3 L1030.54,349.261 L1031.914,341.911 L1035.281,341.948 L1035.859,338.571 L1032.151,338.53 L1033.525,331.18 L1037.118,331.22 L1037.669,328.002 L1034.161,327.964 L1035.535,320.613 L1038.928,320.651 L1039.458,317.561 L1035.902,317.521 L1037.276,310.171 L1040.717,310.209 L1041.167,307.578 L1037.772,307.54 L1039.146,300.19 L1042.427,300.227 L1042.871,297.633 L1039.458,297.595 L1040.831,290.245 L1044.13,290.281 L1044.618,287.43 L1041.069,287.391 L1042.442,280.041 L1045.878,280.079 L1047.696,268.022 L1041.015,268.113 L1040.594,258.159 L1048.259,258.159 L1049.179,235.164 L1051.635,235.47 L1052.233,259.101 L1105.415,259.208 L1105.917,236.697 L1090.28,234.857 L1091.2,221.98 L1098.251,221.674 L1099.784,212.476 L1100.704,209.41 L1100.704,204.197 L1104.69,203.584 L1106.836,191.627 C1106.837,191.628 1100.705,190.708 1100.705,185.189 C1100.705,179.671 1105.917,178.751 1105.917,178.751 L1106.047,163.451 L1087.322,163.451 C1087.323,163.452 1083.39,155.043 1083.368,149.146 C1083.351,144.842 1088.02,138.678 1088.02,138.678 C1088.02,138.678 1086.714,135.956 1086.159,131.699 C1084.414,118.324 1105.931,121.464 1105.931,121.464 L1105.815,74.262 L1093.486,74.378 L1094.417,61.7 L1099.651,61.468 L1100.446,56.155 L1106.28,56.118 L1105.815,11.71 L1094.184,11.593 C1094.185,11.595 1093.387,7.28 1095.559,4.564 C1095.756,4.407 1095.919,4.195 1096.149,4.092 C1100.264,2.258 1107.332,2.416 1111.847,2.349 L1111.846,2.348 z M2928.864,693.532 C2910.709,696.59 2892.554,699.643 2874.385,702.612 C2854.561,705.839 2775.516,729.632 2775.516,729.632 L2902.663,735.526 C2902.663,735.528 2903.419,733.266 2906.124,731.914 C2908.829,730.561 2928.938,731.914 2928.938,731.914 L2928.864,693.532 z M1064.7,482.525 L1032.305,482.651 L1015.492,568.872 L1035.71,577.858 L1036.459,532.929 C1036.459,532.93 1037.208,520.949 1046.943,510.465 C1051.956,505.139 1058.309,501.009 1065.523,499.498 L1064.7,482.525 z M2692.808,517.354 L2664.53,521.727 C2666.079,526.133 2671.876,531.661 2673.567,536.013 C2676.478,543.423 2677.065,559.335 2677.065,559.335 L2661.614,563.416 L2661.614,575.66 L2694.557,574.494 L2694.822,558.352 L2696.824,557.282 L2697.023,546.667 L2696.56,546.647 L2695.496,545.185 L2692.349,541.587 L2692.808,517.354 z M1900.366,563.518 L1878.263,563.518 L1878.064,569.467 L1882.397,569.133 L1891.007,568.759 L1892.504,571.754 L1903.361,571.005 L1903.735,567.262 L1900.366,563.518 z M2956.658,551.712 L2957.637,571.275 L2963.958,570.853 L2976.092,568.196 L2976.268,552.043 L2956.658,551.712 z M1564.198,549.667 L1560.454,552.288 L1551.095,552.662 L1551.095,555.657 L1560.454,556.031 L1562.326,559.775 L1571.31,559.775 L1572.433,557.529 L1587.608,553.552 L1598.55,550.333 L1588.037,549.904 L1564.198,549.667 z M1398.591,548.911 L1406.221,550.042 L1408.093,555.283 L1431.677,558.652 L1436.544,559.026 L1447.026,558.652 L1450.448,552.118 L1448.788,550.596 L1398.591,548.911 z M1896.421,531.912 L1892.759,532.065 L1882.399,539.837 L1881.86,542.18 L1889.51,542.18 L1889.859,540.915 L1895.125,541.057 L1895.963,542.136 L1900.084,541.984 L1896.421,531.912 z M1202.893,414.189 L1126.759,435.279 L1127.598,478.036 L1113.133,478.141 L1113.587,498.483 L1119.905,518.405 L1120.892,495.039 L1122.044,493.229 L1131.496,493.45 C1144.304,502.202 1145.892,511.289 1145.892,511.289 L1145.891,522.228 L1158.65,522.232 C1177.658,507.571 1179.59,507.219 1186.65,500.702 C1193.71,494.185 1195.579,480.96 1195.579,480.96 L1197.208,472.27 L1199.923,438.6 L1202.893,414.189 z M802.182,474.013 L743.79,478.965 L743.79,521.99 L802.865,521.99 L802.182,474.013 z M2213.32,431.009 L2190.794,430.874 L2180.676,498.117 L2204.59,498.117 L2204.948,478.813 L2213.32,478.678 L2213.32,431.009 z M2213.32,404.304 L2194.87,404.446 L2191.485,424.787 L2213.211,425.019 L2213.32,404.304 z M2213.32,335.546 L2206.239,335.546 L2195.953,399.017 L2213.32,399.017 L2213.32,335.546 z M1043.991,352.313 L1037.31,386.221 L1104.69,386.317 L1105.475,352.563 L1043.991,352.313 z M1078.461,305.666 L1047.828,344.369 L1103.246,344.778 L1078.461,305.666 z M1106.09,270.759 L1081.191,302.217 L1105.774,341.14 L1106.09,270.759 z M1057.641,272.81 L1046.1,339.645 L1075.871,301.578 L1057.641,272.81 z M1101.886,268.313 L1059.778,268.313 L1078.591,298.1 L1101.886,268.313 z" fill-opacity="0" stroke="#000000" stroke-width="1"/>
    </g>
    <path d="M36.403,403.726 L1114.976,47.245" fill-opacity="0" stroke="#000000" stroke-width="4"/>
    <path d="M1114.976,55.426 L504.4,397.882" fill-opacity="0" stroke="#000000" stroke-width="4"/>
    <path d="M504.4,397.882 L614.954,418.92" fill-opacity="0" stroke="#000000" stroke-width="4"/>
    <path d="M614.954,418.92 L842.869,418.92" fill-opacity="0" stroke="#000000" stroke-width="4"/>
    <path d="M1089.484,154.773 L991.305,329.824" fill-opacity="0" stroke="#000000" stroke-width="4"/>
    <path d="M1106.047,163.451 L991.305,345.286" fill-opacity="0" stroke="#000000" stroke-width="4"/>
    <path d="M1147.512,47.245 L2209.216,274.431" fill-opacity="0" stroke="#000000" stroke-width="4"/>
    <path d="M2209.216,274.431 L1136.351,55.426" fill-opacity="0" stroke="#000000" stroke-width="4"/>
    <path d="M1612.873,153.079 L1632.707,370.132" fill-opacity="0" stroke="#000000" stroke-width="4"/>
    <path d="M1789.517,189.108 L1791.824,251.371" fill-opacity="0" stroke="#000000" stroke-width="4"/>
    <path d="M1791.824,251.371 L2135.423,345.286" fill-opacity="0" stroke="#000000" stroke-width="4"/>
    <path d="M2135.423,345.286 L2209.216,274.431" fill-opacity="0" stroke="#000000" stroke-width="4"/>
    <path d="M1618.871,227.157 L2114.668,358.601" fill-opacity="0" stroke="#000000" stroke-width="4"/>
    <path d="M2135.423,345.286 L2114.668,358.601" fill-opacity="0" stroke="#000000" stroke-width="4"/>
    <path d="M2114.668,358.601 L2114.668,454.302" fill-opacity="0" stroke="#000000" stroke-width="4"/>
    <path d="M2135.423,345.286 L2121.688,505.754" fill-opacity="0" stroke="#000000" stroke-width="4"/>
    <path d="M1791.823,251.371 L1699.792,482.448" fill-opacity="0" stroke="#000000" stroke-width="4"/>
    <path d="M2253.111,276.451 L3162.761,514.259" fill-opacity="0" stroke="#000000" stroke-width="4"/>
    <path d="M3159.142,514.259 L2964.74,491.198" fill-opacity="0" stroke="#000000" stroke-width="4"/>
    <path d="M2966.748,491.198 L2784.404,491.198" fill-opacity="0" stroke="#000000" stroke-width="4"/>
    <path d="M2784.404,491.198 L2605.193,462.208" fill-opacity="0" stroke="#000000" stroke-width="4"/>
    <path d="M2605.193,462.208 L2487.093,498.117" fill-opacity="0" stroke="#000000" stroke-width="4"/>
    <path d="M2224.636,293.567 L2375.383,395.109" fill-opacity="0" stroke="#000000" stroke-width="4"/>
    <path d="M1116.366,75.934 L1161.957,99.456" fill-opacity="0" stroke="#000000" stroke-width="4"/>
    <path d="M834.975,413.302 C743.044,418.92 512.458,261.674 512.458,246.012" fill-opacity="0" stroke="#000000" stroke-width="4"/>
    <path d="M834.975,397.882 C779.816,397.882 677.792,325.457 676.43,300.942" fill-opacity="0" stroke="#000000" stroke-width="4"/>
  </g>
</svg>
